<svg xmlns="http://www.w3.org/2000/svg" viewBox="0 0 702 704">
  <path d="M336 702A347 347 0 0111 432 350 350 0 01551 65a351 351 0 0145 36c2 3 2 4 0 6l-30 30c-2 3-4 2-6 0a175 175 0 00-27-25c-21-14-42-27-65-37a331 331 0 00-48-16 281 281 0 00-34-6l-40-2a406 406 0 00-42 4 303 303 0 00-59 16 269 269 0 00-50 24 322 322 0 00-37 27 344 344 0 00-35 34 285 285 0 00-62 116 331 331 0 00-8 117 287 287 0 0053 137 334 334 0 0094 86 298 298 0 0068 29 267 267 0 0058 10l30 2a327 327 0 00122-28 305 305 0 0052-31l31-27c2-3 3-2 5 0l30 29c2 3 2 4 0 6a349 349 0 01-121 77c-40 15-82 23-139 23z"/>
  <path d="M144 516l8-20 121-303c1-3 3-4 6-4h275c4 0 5 1 5 5v29c0 4-1 5-5 5H400c-5 0-6 1-6 6v78c0 4 1 5 5 5h154c5 0 6 1 6 6v28c0 4-1 5-5 5H399c-4 0-5 1-5 5v111c0 4 1 5 5 5h154c5 0 6 1 6 6v28c0 4-1 5-5 5H356c-4 0-5-1-5-5V400c0-4-1-5-5-5H240c-3 0-5 1-6 4l-43 113c-1 3-3 4-6 4h-41zm107-159h97c3 0 3-1 3-4V229c0-3 0-4-4-4h-40c-3 0-4 1-5 4l-18 43-33 85z"/>
  <path d="M620 128c2-1 2 1 2 1l15 18c8 11 14 22 21 34a362 362 0 0118 39l10 27c1 2 1 2-1 3l-45 14c-2 1-2-1-2-2l-5-15a124 124 0 00-5-12 371 371 0 00-44-71c-2-3-3-6 1-8 5-2 8-7 12-10l20-17a9 9 0 013-1z"/>
  <path d="M581 545a414 414 0 0028-40 277 277 0 0025-54l3-8c1-2 2-3 5-2l16 5 26 7c3 1 3 2 2 4l-9 26c-5 14-12 27-19 39a260 260 0 01-19 30l-16 23h-4c-13-9-24-20-36-29l-2-1z"/>
  <path d="M701 330v44a349 349 0 01-5 42c-1 3-1 5-6 4l-41-8c-3 0-3-2-3-4 5-20 6-39 6-59 0-18-2-36-6-53 0-3 0-4 3-4l43-9c2 0 3 0 3 2a231 231 0 015 31l1 14z"/>
</svg>